<mxfile host="app.diagrams.net" modified="2022-08-18T23:04:13.416Z" agent="5.0 (Macintosh)" etag="sbh10oG7MxzOeXkQdo6s" version="20.2.5" type="github" pages="2">
  <diagram id="FRSoBtHujyncFjuJLg8h" name="Page-1">
    <mxGraphModel dx="1820" dy="640" grid="1" gridSize="10" guides="1" tooltips="1" connect="1" arrows="1" fold="1" page="1" pageScale="1" pageWidth="850" pageHeight="1100" math="0" shadow="0">
      <root>
        <mxCell id="0" />
        <mxCell id="1" parent="0" />
        <mxCell id="eLN1chgJhoGsmXS2zDMO-10" value="" style="rounded=0;whiteSpace=wrap;html=1;" parent="1" vertex="1">
          <mxGeometry x="-40" y="605" width="325" height="110" as="geometry" />
        </mxCell>
        <mxCell id="eLN1chgJhoGsmXS2zDMO-13" value="" style="edgeStyle=orthogonalEdgeStyle;rounded=0;orthogonalLoop=1;jettySize=auto;html=1;" parent="1" source="N7xInEoGNkmSRCjMhbKC-26" target="N7xInEoGNkmSRCjMhbKC-16" edge="1">
          <mxGeometry relative="1" as="geometry" />
        </mxCell>
        <mxCell id="N7xInEoGNkmSRCjMhbKC-26" value="&lt;div&gt;User&lt;/div&gt;&lt;div&gt;&lt;br&gt;&lt;/div&gt;" style="html=1;verticalLabelPosition=bottom;align=center;labelBackgroundColor=#ffffff;verticalAlign=top;strokeWidth=2;strokeColor=#0080F0;shadow=0;dashed=0;shape=mxgraph.ios7.icons.user;" parent="1" vertex="1">
          <mxGeometry x="159.75" y="320" width="30" height="28" as="geometry" />
        </mxCell>
        <mxCell id="ELKnKtWJVJBziBPECU-l-7" value="" style="edgeStyle=orthogonalEdgeStyle;rounded=0;orthogonalLoop=1;jettySize=auto;html=1;" parent="1" source="N7xInEoGNkmSRCjMhbKC-78" edge="1">
          <mxGeometry relative="1" as="geometry">
            <mxPoint x="430.3931818181818" y="652.8" as="targetPoint" />
          </mxGeometry>
        </mxCell>
        <mxCell id="ELKnKtWJVJBziBPECU-l-8" value="" style="edgeStyle=orthogonalEdgeStyle;rounded=0;orthogonalLoop=1;jettySize=auto;html=1;" parent="1" source="N7xInEoGNkmSRCjMhbKC-78" target="kzWBI1e0YCosuCWZ6FZc-21" edge="1">
          <mxGeometry relative="1" as="geometry" />
        </mxCell>
        <mxCell id="N7xInEoGNkmSRCjMhbKC-78" value="&lt;div&gt;S3&lt;/div&gt;&lt;div&gt;&lt;br&gt;&lt;/div&gt;" style="sketch=0;outlineConnect=0;fontColor=#232F3E;gradientColor=none;fillColor=#3F8624;strokeColor=none;dashed=0;verticalLabelPosition=bottom;verticalAlign=top;align=center;html=1;fontSize=12;fontStyle=0;aspect=fixed;pointerEvents=1;shape=mxgraph.aws4.bucket_with_objects;shadow=0;" parent="1" vertex="1">
          <mxGeometry x="335" y="623" width="55.78" height="58" as="geometry" />
        </mxCell>
        <mxCell id="3JxnS5d0L0PRlOjddsI_-21" value="" style="edgeStyle=orthogonalEdgeStyle;rounded=0;orthogonalLoop=1;jettySize=auto;html=1;" parent="1" target="N7xInEoGNkmSRCjMhbKC-84" edge="1">
          <mxGeometry relative="1" as="geometry">
            <mxPoint x="477.9627272727271" y="652" as="sourcePoint" />
          </mxGeometry>
        </mxCell>
        <mxCell id="3JxnS5d0L0PRlOjddsI_-26" value="" style="edgeStyle=orthogonalEdgeStyle;rounded=0;orthogonalLoop=1;jettySize=auto;html=1;" parent="1" source="N7xInEoGNkmSRCjMhbKC-84" target="N7xInEoGNkmSRCjMhbKC-85" edge="1">
          <mxGeometry relative="1" as="geometry" />
        </mxCell>
        <mxCell id="N7xInEoGNkmSRCjMhbKC-84" value="Athena" style="sketch=0;points=[[0,0,0],[0.25,0,0],[0.5,0,0],[0.75,0,0],[1,0,0],[0,1,0],[0.25,1,0],[0.5,1,0],[0.75,1,0],[1,1,0],[0,0.25,0],[0,0.5,0],[0,0.75,0],[1,0.25,0],[1,0.5,0],[1,0.75,0]];outlineConnect=0;fontColor=#232F3E;gradientColor=#945DF2;gradientDirection=north;fillColor=#5A30B5;strokeColor=#ffffff;dashed=0;verticalLabelPosition=bottom;verticalAlign=top;align=center;html=1;fontSize=12;fontStyle=0;aspect=fixed;shape=mxgraph.aws4.resourceIcon;resIcon=mxgraph.aws4.athena;shadow=0;" parent="1" vertex="1">
          <mxGeometry x="522" y="623" width="58" height="58" as="geometry" />
        </mxCell>
        <mxCell id="N7xInEoGNkmSRCjMhbKC-85" value="&lt;div&gt;QuickSight&lt;/div&gt;&lt;div&gt;&lt;br&gt;&lt;/div&gt;" style="sketch=0;points=[[0,0,0],[0.25,0,0],[0.5,0,0],[0.75,0,0],[1,0,0],[0,1,0],[0.25,1,0],[0.5,1,0],[0.75,1,0],[1,1,0],[0,0.25,0],[0,0.5,0],[0,0.75,0],[1,0.25,0],[1,0.5,0],[1,0.75,0]];outlineConnect=0;fontColor=#232F3E;gradientColor=#945DF2;gradientDirection=north;fillColor=#5A30B5;strokeColor=#ffffff;dashed=0;verticalLabelPosition=bottom;verticalAlign=top;align=center;html=1;fontSize=12;fontStyle=0;aspect=fixed;shape=mxgraph.aws4.resourceIcon;resIcon=mxgraph.aws4.quicksight;shadow=0;" parent="1" vertex="1">
          <mxGeometry x="633" y="623" width="57" height="57" as="geometry" />
        </mxCell>
        <mxCell id="3JxnS5d0L0PRlOjddsI_-24" style="edgeStyle=orthogonalEdgeStyle;rounded=0;orthogonalLoop=1;jettySize=auto;html=1;" parent="1" source="kzWBI1e0YCosuCWZ6FZc-21" target="kzWBI1e0YCosuCWZ6FZc-22" edge="1">
          <mxGeometry relative="1" as="geometry" />
        </mxCell>
        <mxCell id="eLN1chgJhoGsmXS2zDMO-18" style="edgeStyle=orthogonalEdgeStyle;rounded=0;orthogonalLoop=1;jettySize=auto;html=1;" parent="1" source="kzWBI1e0YCosuCWZ6FZc-21" edge="1">
          <mxGeometry relative="1" as="geometry">
            <mxPoint x="210" y="420" as="targetPoint" />
            <Array as="points">
              <mxPoint x="700" y="780" />
              <mxPoint x="700" y="420" />
            </Array>
          </mxGeometry>
        </mxCell>
        <mxCell id="kzWBI1e0YCosuCWZ6FZc-21" value="Personalize" style="sketch=0;points=[[0,0,0],[0.25,0,0],[0.5,0,0],[0.75,0,0],[1,0,0],[0,1,0],[0.25,1,0],[0.5,1,0],[0.75,1,0],[1,1,0],[0,0.25,0],[0,0.5,0],[0,0.75,0],[1,0.25,0],[1,0.5,0],[1,0.75,0]];outlineConnect=0;fontColor=#232F3E;gradientColor=#4AB29A;gradientDirection=north;fillColor=#116D5B;strokeColor=#ffffff;dashed=0;verticalLabelPosition=bottom;verticalAlign=top;align=center;html=1;fontSize=12;fontStyle=0;aspect=fixed;shape=mxgraph.aws4.resourceIcon;resIcon=mxgraph.aws4.personalize;shadow=0;" parent="1" vertex="1">
          <mxGeometry x="333" y="750" width="60" height="60" as="geometry" />
        </mxCell>
        <mxCell id="eLN1chgJhoGsmXS2zDMO-19" style="edgeStyle=orthogonalEdgeStyle;rounded=0;orthogonalLoop=1;jettySize=auto;html=1;entryX=0.008;entryY=0.536;entryDx=0;entryDy=0;entryPerimeter=0;" parent="1" source="kzWBI1e0YCosuCWZ6FZc-22" target="N7xInEoGNkmSRCjMhbKC-26" edge="1">
          <mxGeometry relative="1" as="geometry">
            <Array as="points">
              <mxPoint x="-79" y="335" />
            </Array>
          </mxGeometry>
        </mxCell>
        <mxCell id="459_zvALMaoR9ND6ZmGh-2" value="" style="edgeStyle=orthogonalEdgeStyle;rounded=0;orthogonalLoop=1;jettySize=auto;html=1;" parent="1" source="kzWBI1e0YCosuCWZ6FZc-22" target="ELKnKtWJVJBziBPECU-l-3" edge="1">
          <mxGeometry relative="1" as="geometry" />
        </mxCell>
        <mxCell id="kzWBI1e0YCosuCWZ6FZc-22" value="Pinpoint" style="sketch=0;points=[[0,0,0],[0.25,0,0],[0.5,0,0],[0.75,0,0],[1,0,0],[0,1,0],[0.25,1,0],[0.5,1,0],[0.75,1,0],[1,1,0],[0,0.25,0],[0,0.5,0],[0,0.75,0],[1,0.25,0],[1,0.5,0],[1,0.75,0]];outlineConnect=0;fontColor=#232F3E;gradientColor=#4D72F3;gradientDirection=north;fillColor=#3334B9;strokeColor=#ffffff;dashed=0;verticalLabelPosition=bottom;verticalAlign=top;align=center;html=1;fontSize=12;fontStyle=0;aspect=fixed;shape=mxgraph.aws4.resourceIcon;resIcon=mxgraph.aws4.pinpoint;shadow=0;" parent="1" vertex="1">
          <mxGeometry x="-107" y="624" width="56" height="56" as="geometry" />
        </mxCell>
        <mxCell id="bzhvetLcgo5mrLud2nlG-22" style="edgeStyle=orthogonalEdgeStyle;rounded=0;orthogonalLoop=1;jettySize=auto;html=1;" parent="1" edge="1">
          <mxGeometry relative="1" as="geometry">
            <mxPoint x="106.52999999999997" y="652.5" as="sourcePoint" />
            <mxPoint x="137" y="652.5" as="targetPoint" />
          </mxGeometry>
        </mxCell>
        <mxCell id="bzhvetLcgo5mrLud2nlG-17" style="edgeStyle=orthogonalEdgeStyle;rounded=0;orthogonalLoop=1;jettySize=auto;html=1;" parent="1" source="N7xInEoGNkmSRCjMhbKC-37" target="N7xInEoGNkmSRCjMhbKC-78" edge="1">
          <mxGeometry relative="1" as="geometry">
            <Array as="points">
              <mxPoint x="370" y="560" />
            </Array>
          </mxGeometry>
        </mxCell>
        <mxCell id="eLN1chgJhoGsmXS2zDMO-2" value="&lt;div&gt;Kinesis Firehose&lt;/div&gt;&lt;div&gt;&lt;br&gt;&lt;/div&gt;" style="sketch=0;points=[[0,0,0],[0.25,0,0],[0.5,0,0],[0.75,0,0],[1,0,0],[0,1,0],[0.25,1,0],[0.5,1,0],[0.75,1,0],[1,1,0],[0,0.25,0],[0,0.5,0],[0,0.75,0],[1,0.25,0],[1,0.5,0],[1,0.75,0]];outlineConnect=0;fontColor=#232F3E;gradientColor=#945DF2;gradientDirection=north;fillColor=#5A30B5;strokeColor=#ffffff;dashed=0;verticalLabelPosition=bottom;verticalAlign=top;align=center;html=1;fontSize=12;fontStyle=0;aspect=fixed;shape=mxgraph.aws4.resourceIcon;resIcon=mxgraph.aws4.kinesis_data_firehose;" parent="1" vertex="1">
          <mxGeometry x="140" y="624" width="55" height="55" as="geometry" />
        </mxCell>
        <mxCell id="ELKnKtWJVJBziBPECU-l-4" value="" style="edgeStyle=orthogonalEdgeStyle;rounded=0;orthogonalLoop=1;jettySize=auto;html=1;" parent="1" source="eLN1chgJhoGsmXS2zDMO-3" target="ELKnKtWJVJBziBPECU-l-3" edge="1">
          <mxGeometry relative="1" as="geometry" />
        </mxCell>
        <mxCell id="459_zvALMaoR9ND6ZmGh-3" value="" style="edgeStyle=orthogonalEdgeStyle;rounded=0;orthogonalLoop=1;jettySize=auto;html=1;" parent="1" source="kzWBI1e0YCosuCWZ6FZc-22" target="eLN1chgJhoGsmXS2zDMO-3" edge="1">
          <mxGeometry relative="1" as="geometry" />
        </mxCell>
        <mxCell id="eLN1chgJhoGsmXS2zDMO-3" value="&lt;div&gt;Kinesis&lt;/div&gt;&lt;div&gt;Data Streams&lt;br&gt;&lt;/div&gt;" style="sketch=0;points=[[0,0,0],[0.25,0,0],[0.5,0,0],[0.75,0,0],[1,0,0],[0,1,0],[0.25,1,0],[0.5,1,0],[0.75,1,0],[1,1,0],[0,0.25,0],[0,0.5,0],[0,0.75,0],[1,0.25,0],[1,0.5,0],[1,0.75,0]];outlineConnect=0;fontColor=#232F3E;gradientColor=#945DF2;gradientDirection=north;fillColor=#5A30B5;strokeColor=#ffffff;dashed=0;verticalLabelPosition=bottom;verticalAlign=top;align=center;html=1;fontSize=12;fontStyle=0;aspect=fixed;shape=mxgraph.aws4.resourceIcon;resIcon=mxgraph.aws4.kinesis_data_streams;" parent="1" vertex="1">
          <mxGeometry x="-16" y="624" width="56" height="56" as="geometry" />
        </mxCell>
        <mxCell id="eLN1chgJhoGsmXS2zDMO-6" value="" style="edgeStyle=orthogonalEdgeStyle;rounded=0;orthogonalLoop=1;jettySize=auto;html=1;" parent="1" source="eLN1chgJhoGsmXS2zDMO-2" target="eLN1chgJhoGsmXS2zDMO-4" edge="1">
          <mxGeometry relative="1" as="geometry" />
        </mxCell>
        <mxCell id="eLN1chgJhoGsmXS2zDMO-7" value="" style="edgeStyle=orthogonalEdgeStyle;rounded=0;orthogonalLoop=1;jettySize=auto;html=1;" parent="1" source="eLN1chgJhoGsmXS2zDMO-4" target="N7xInEoGNkmSRCjMhbKC-78" edge="1">
          <mxGeometry relative="1" as="geometry" />
        </mxCell>
        <mxCell id="eLN1chgJhoGsmXS2zDMO-4" value="Lambda" style="outlineConnect=0;dashed=0;verticalLabelPosition=bottom;verticalAlign=top;align=center;html=1;shape=mxgraph.aws3.lambda_function;fillColor=#F58534;gradientColor=none;" parent="1" vertex="1">
          <mxGeometry x="226" y="624.5" width="54" height="54.5" as="geometry" />
        </mxCell>
        <mxCell id="N7xInEoGNkmSRCjMhbKC-37" value="&lt;div&gt;Aurora Primary&lt;/div&gt;&lt;div&gt;&lt;br&gt;&lt;/div&gt;" style="sketch=0;points=[[0,0,0],[0.25,0,0],[0.5,0,0],[0.75,0,0],[1,0,0],[0,1,0],[0.25,1,0],[0.5,1,0],[0.75,1,0],[1,1,0],[0,0.25,0],[0,0.5,0],[0,0.75,0],[1,0.25,0],[1,0.5,0],[1,0.75,0]];outlineConnect=0;fontColor=#232F3E;gradientColor=#4D72F3;gradientDirection=north;fillColor=#3334B9;strokeColor=#ffffff;dashed=0;verticalLabelPosition=bottom;verticalAlign=top;align=center;html=1;fontSize=12;fontStyle=0;aspect=fixed;shape=mxgraph.aws4.resourceIcon;resIcon=mxgraph.aws4.aurora;shadow=1;" parent="1" vertex="1">
          <mxGeometry x="152.5" y="507.75" width="60.25" height="60.25" as="geometry" />
        </mxCell>
        <mxCell id="N7xInEoGNkmSRCjMhbKC-79" style="rounded=0;orthogonalLoop=1;jettySize=auto;html=1;edgeStyle=orthogonalEdgeStyle;exitX=0.75;exitY=1;exitDx=0;exitDy=0;exitPerimeter=0;" parent="1" source="N7xInEoGNkmSRCjMhbKC-16" edge="1">
          <mxGeometry relative="1" as="geometry">
            <mxPoint x="190" y="500" as="targetPoint" />
          </mxGeometry>
        </mxCell>
        <mxCell id="eLN1chgJhoGsmXS2zDMO-11" value="Kinesis ITL Workflow" style="text;html=1;align=center;verticalAlign=middle;resizable=0;points=[];autosize=1;strokeColor=none;fillColor=none;" parent="1" vertex="1">
          <mxGeometry x="47" y="717" width="140" height="30" as="geometry" />
        </mxCell>
        <mxCell id="eLN1chgJhoGsmXS2zDMO-12" style="edgeStyle=orthogonalEdgeStyle;rounded=0;orthogonalLoop=1;jettySize=auto;html=1;entryX=0.5;entryY=0;entryDx=0;entryDy=0;entryPerimeter=0;" parent="1" source="N7xInEoGNkmSRCjMhbKC-16" target="eLN1chgJhoGsmXS2zDMO-3" edge="1">
          <mxGeometry relative="1" as="geometry" />
        </mxCell>
        <mxCell id="N7xInEoGNkmSRCjMhbKC-16" value="EC2 " style="sketch=0;points=[[0,0,0],[0.25,0,0],[0.5,0,0],[0.75,0,0],[1,0,0],[0,1,0],[0.25,1,0],[0.5,1,0],[0.75,1,0],[1,1,0],[0,0.25,0],[0,0.5,0],[0,0.75,0],[1,0.25,0],[1,0.5,0],[1,0.75,0]];outlineConnect=0;fontColor=#232F3E;gradientColor=#F78E04;gradientDirection=north;fillColor=#D05C17;strokeColor=#ffffff;dashed=0;verticalLabelPosition=bottom;verticalAlign=top;align=center;html=1;fontSize=12;fontStyle=0;aspect=fixed;shape=mxgraph.aws4.resourceIcon;resIcon=mxgraph.aws4.ec2;" parent="1" vertex="1">
          <mxGeometry x="146.5" y="393" width="57" height="57" as="geometry" />
        </mxCell>
        <mxCell id="ELKnKtWJVJBziBPECU-l-3" value="&lt;div&gt;Kinesis&lt;/div&gt;&lt;div&gt;Data Analytics&lt;br&gt;&lt;/div&gt;" style="sketch=0;points=[[0,0,0],[0.25,0,0],[0.5,0,0],[0.75,0,0],[1,0,0],[0,1,0],[0.25,1,0],[0.5,1,0],[0.75,1,0],[1,1,0],[0,0.25,0],[0,0.5,0],[0,0.75,0],[1,0.25,0],[1,0.5,0],[1,0.75,0]];outlineConnect=0;fontColor=#232F3E;gradientColor=#945DF2;gradientDirection=north;fillColor=#5A30B5;strokeColor=#ffffff;dashed=0;verticalLabelPosition=bottom;verticalAlign=top;align=center;html=1;fontSize=12;fontStyle=0;aspect=fixed;shape=mxgraph.aws4.resourceIcon;resIcon=mxgraph.aws4.kinesis_data_analytics;" parent="1" vertex="1">
          <mxGeometry x="61.5" y="623" width="58" height="58" as="geometry" />
        </mxCell>
        <mxCell id="459_zvALMaoR9ND6ZmGh-1" value="Glue" style="sketch=0;points=[[0,0,0],[0.25,0,0],[0.5,0,0],[0.75,0,0],[1,0,0],[0,1,0],[0.25,1,0],[0.5,1,0],[0.75,1,0],[1,1,0],[0,0.25,0],[0,0.5,0],[0,0.75,0],[1,0.25,0],[1,0.5,0],[1,0.75,0]];outlineConnect=0;fontColor=#232F3E;gradientColor=#945DF2;gradientDirection=north;fillColor=#5A30B5;strokeColor=#ffffff;dashed=0;verticalLabelPosition=bottom;verticalAlign=top;align=center;html=1;fontSize=12;fontStyle=0;aspect=fixed;shape=mxgraph.aws4.resourceIcon;resIcon=mxgraph.aws4.glue;" parent="1" vertex="1">
          <mxGeometry x="425" y="621" width="59" height="59" as="geometry" />
        </mxCell>
      </root>
    </mxGraphModel>
  </diagram>
  <diagram id="t7Q19gO0SFo-g30Y7JVv" name="Page-2">
    <mxGraphModel dx="1820" dy="640" grid="1" gridSize="10" guides="1" tooltips="1" connect="1" arrows="1" fold="1" page="1" pageScale="1" pageWidth="850" pageHeight="1100" math="0" shadow="0">
      <root>
        <mxCell id="0" />
        <mxCell id="1" parent="0" />
        <mxCell id="KKD5ZWP2EROIvAaSfn_G-1" value="&lt;div&gt;Spark- &lt;br&gt;&lt;/div&gt;&lt;div&gt;real time analytics and ML using in memory RDD&lt;/div&gt;" style="shape=image;html=1;verticalAlign=top;verticalLabelPosition=bottom;labelBackgroundColor=#ffffff;imageAspect=0;aspect=fixed;image=https://cdn2.iconfinder.com/data/icons/vivid/48/thunder-128.png" vertex="1" parent="1">
          <mxGeometry x="370" y="110" width="70" height="70" as="geometry" />
        </mxCell>
        <mxCell id="KKD5ZWP2EROIvAaSfn_G-4" style="edgeStyle=orthogonalEdgeStyle;rounded=0;orthogonalLoop=1;jettySize=auto;html=1;" edge="1" parent="1" source="KKD5ZWP2EROIvAaSfn_G-3">
          <mxGeometry relative="1" as="geometry">
            <mxPoint x="450" y="275" as="targetPoint" />
          </mxGeometry>
        </mxCell>
        <mxCell id="KKD5ZWP2EROIvAaSfn_G-3" value="Sqoop brings in SQL database to Hadoop" style="aspect=fixed;perimeter=ellipsePerimeter;html=1;align=center;shadow=0;dashed=0;spacingTop=3;image;image=img/lib/active_directory/sql_server.svg;" vertex="1" parent="1">
          <mxGeometry x="640" y="250" width="38.5" height="50" as="geometry" />
        </mxCell>
        <mxCell id="KKD5ZWP2EROIvAaSfn_G-6" value="" style="edgeStyle=orthogonalEdgeStyle;rounded=0;orthogonalLoop=1;jettySize=auto;html=1;" edge="1" parent="1" source="KKD5ZWP2EROIvAaSfn_G-5">
          <mxGeometry relative="1" as="geometry">
            <mxPoint x="375" y="270" as="targetPoint" />
          </mxGeometry>
        </mxCell>
        <mxCell id="KKD5ZWP2EROIvAaSfn_G-5" value="Kafka for messaging in clusters" style="sketch=0;points=[[0,0,0],[0.25,0,0],[0.5,0,0],[0.75,0,0],[1,0,0],[0,1,0],[0.25,1,0],[0.5,1,0],[0.75,1,0],[1,1,0],[0,0.25,0],[0,0.5,0],[0,0.75,0],[1,0.25,0],[1,0.5,0],[1,0.75,0]];outlineConnect=0;fontColor=#232F3E;gradientColor=#945DF2;gradientDirection=north;fillColor=#5A30B5;strokeColor=#ffffff;dashed=0;verticalLabelPosition=bottom;verticalAlign=top;align=center;html=1;fontSize=12;fontStyle=0;aspect=fixed;shape=mxgraph.aws4.resourceIcon;resIcon=mxgraph.aws4.managed_streaming_for_kafka;" vertex="1" parent="1">
          <mxGeometry x="180" y="240" width="59" height="59" as="geometry" />
        </mxCell>
        <mxCell id="KKD5ZWP2EROIvAaSfn_G-9" style="edgeStyle=orthogonalEdgeStyle;rounded=0;orthogonalLoop=1;jettySize=auto;html=1;" edge="1" parent="1" source="KKD5ZWP2EROIvAaSfn_G-7">
          <mxGeometry relative="1" as="geometry">
            <mxPoint x="380" y="300" as="targetPoint" />
            <Array as="points">
              <mxPoint x="240" y="330" />
              <mxPoint x="380" y="330" />
            </Array>
          </mxGeometry>
        </mxCell>
        <mxCell id="KKD5ZWP2EROIvAaSfn_G-7" value="&lt;div&gt;Pig &lt;br&gt;&lt;/div&gt;&lt;div&gt;for transforming unstructured data and querying&lt;br&gt;&lt;/div&gt;" style="shape=image;html=1;verticalAlign=top;verticalLabelPosition=bottom;labelBackgroundColor=#ffffff;imageAspect=0;aspect=fixed;image=https://cdn1.iconfinder.com/data/icons/DarkGlass_Reworked/128x128/apps/pig.png" vertex="1" parent="1">
          <mxGeometry x="180" y="350" width="100" height="100" as="geometry" />
        </mxCell>
        <mxCell id="KKD5ZWP2EROIvAaSfn_G-11" value="" style="edgeStyle=orthogonalEdgeStyle;rounded=0;orthogonalLoop=1;jettySize=auto;html=1;" edge="1" parent="1" source="KKD5ZWP2EROIvAaSfn_G-10">
          <mxGeometry relative="1" as="geometry">
            <mxPoint x="405" y="300" as="targetPoint" />
          </mxGeometry>
        </mxCell>
        <mxCell id="KKD5ZWP2EROIvAaSfn_G-10" value="Hive for structuring SQL data and querying" style="shape=image;html=1;verticalAlign=top;verticalLabelPosition=bottom;labelBackgroundColor=#ffffff;imageAspect=0;aspect=fixed;image=https://cdn2.iconfinder.com/data/icons/boxicons-regular-vol-2/24/bx-hive-128.png" vertex="1" parent="1">
          <mxGeometry x="355" y="360" width="80" height="80" as="geometry" />
        </mxCell>
        <mxCell id="KKD5ZWP2EROIvAaSfn_G-15" style="edgeStyle=orthogonalEdgeStyle;rounded=0;orthogonalLoop=1;jettySize=auto;html=1;" edge="1" parent="1" source="KKD5ZWP2EROIvAaSfn_G-12">
          <mxGeometry relative="1" as="geometry">
            <mxPoint x="450" y="330" as="targetPoint" />
            <Array as="points">
              <mxPoint x="450" y="350" />
            </Array>
          </mxGeometry>
        </mxCell>
        <mxCell id="KKD5ZWP2EROIvAaSfn_G-12" value="Flume-bring in log data" style="verticalLabelPosition=bottom;align=center;outlineConnect=0;dashed=0;html=1;verticalAlign=top;shape=mxgraph.pid.flow_sensors.flume;pointerEvents=1;" vertex="1" parent="1">
          <mxGeometry x="628.5" y="350" width="50" height="50" as="geometry" />
        </mxCell>
        <mxCell id="KKD5ZWP2EROIvAaSfn_G-13" value="&lt;div&gt;Ambari- &lt;br&gt;&lt;/div&gt;&lt;div&gt;administer Hadoop on the web&lt;/div&gt;" style="sketch=0;html=1;aspect=fixed;strokeColor=none;shadow=0;align=center;verticalAlign=top;fillColor=#F4AF20;shape=mxgraph.gcp2.check" vertex="1" parent="1">
          <mxGeometry x="100" y="40" width="100" height="80" as="geometry" />
        </mxCell>
        <mxCell id="KKD5ZWP2EROIvAaSfn_G-17" style="edgeStyle=orthogonalEdgeStyle;rounded=0;orthogonalLoop=1;jettySize=auto;html=1;" edge="1" parent="1" source="KKD5ZWP2EROIvAaSfn_G-16">
          <mxGeometry relative="1" as="geometry">
            <mxPoint x="450" y="250" as="targetPoint" />
            <Array as="points">
              <mxPoint x="610" y="240" />
              <mxPoint x="450" y="240" />
            </Array>
          </mxGeometry>
        </mxCell>
        <mxCell id="KKD5ZWP2EROIvAaSfn_G-16" value="Drill- to query for database" style="shape=image;html=1;verticalAlign=top;verticalLabelPosition=bottom;labelBackgroundColor=#ffffff;imageAspect=0;aspect=fixed;image=https://cdn2.iconfinder.com/data/icons/crystalproject/128x128/apps/package_utilities.png" vertex="1" parent="1">
          <mxGeometry x="570" y="110" width="80" height="80" as="geometry" />
        </mxCell>
        <mxCell id="KKD5ZWP2EROIvAaSfn_G-18" value="Hbase- real time modification of data before feeding to HDFS" style="shape=image;html=1;verticalAlign=top;verticalLabelPosition=bottom;labelBackgroundColor=#ffffff;imageAspect=0;aspect=fixed;image=https://cdn0.iconfinder.com/data/icons/phosphor-regular-vol-4/256/text-h-one-128.png" vertex="1" parent="1">
          <mxGeometry x="140" y="130" width="50" height="50" as="geometry" />
        </mxCell>
        <mxCell id="KKD5ZWP2EROIvAaSfn_G-19" value="Hadoop- uses YARN to EMR data in HDFS" style="shape=image;html=1;verticalAlign=top;verticalLabelPosition=bottom;labelBackgroundColor=#ffffff;imageAspect=0;aspect=fixed;image=https://cdn0.iconfinder.com/data/icons/phosphor-fill-vol-4/256/text-h-fill-128.png" vertex="1" parent="1">
          <mxGeometry x="380" y="230" width="60" height="60" as="geometry" />
        </mxCell>
        <mxCell id="KKD5ZWP2EROIvAaSfn_G-21" style="edgeStyle=orthogonalEdgeStyle;rounded=0;orthogonalLoop=1;jettySize=auto;html=1;" edge="1" parent="1" source="KKD5ZWP2EROIvAaSfn_G-20">
          <mxGeometry relative="1" as="geometry">
            <mxPoint x="440" y="340" as="targetPoint" />
            <Array as="points">
              <mxPoint x="440" y="440" />
            </Array>
          </mxGeometry>
        </mxCell>
        <mxCell id="KKD5ZWP2EROIvAaSfn_G-20" value="Mahout- for ML" style="shape=image;html=1;verticalAlign=top;verticalLabelPosition=bottom;labelBackgroundColor=#ffffff;imageAspect=0;aspect=fixed;image=https://cdn0.iconfinder.com/data/icons/eon-social-media-contact-info-2/32/medium_news_article_m-128.png" vertex="1" parent="1">
          <mxGeometry x="580" y="430" width="90" height="90" as="geometry" />
        </mxCell>
        <mxCell id="KKD5ZWP2EROIvAaSfn_G-22" value="Presto- honorable mention- sql processing of big data " style="shape=image;html=1;verticalAlign=top;verticalLabelPosition=bottom;labelBackgroundColor=#ffffff;imageAspect=0;aspect=fixed;image=https://cdn2.iconfinder.com/data/icons/font-awesome/1792/pinterest-p-128.png" vertex="1" parent="1">
          <mxGeometry x="60" y="530" width="80" height="80" as="geometry" />
        </mxCell>
      </root>
    </mxGraphModel>
  </diagram>
</mxfile>
